<?xml version="1.0" encoding="UTF-8" standalone="no"?>
<!-- Created with Inkscape (http://www.inkscape.org/) -->

<svg
   width="161mm"
   height="162mm"
   viewBox="0 0 161 162"
   version="1.1"
   id="svg351"
   sodipodi:docname="logo.svg"
   inkscape:version="1.2 (dc2aedaf03, 2022-05-15)"
   xmlns:inkscape="http://www.inkscape.org/namespaces/inkscape"
   xmlns:sodipodi="http://sodipodi.sourceforge.net/DTD/sodipodi-0.dtd"
   xmlns="http://www.w3.org/2000/svg"
   xmlns:svg="http://www.w3.org/2000/svg">
  <sodipodi:namedview
     id="namedview353"
     pagecolor="#ffffff"
     bordercolor="#000000"
     borderopacity="0.25"
     inkscape:showpageshadow="2"
     inkscape:pageopacity="0.0"
     inkscape:pagecheckerboard="0"
     inkscape:deskcolor="#d1d1d1"
     inkscape:document-units="mm"
     showgrid="true"
     inkscape:zoom="0.73851712"
     inkscape:cx="377.10703"
     inkscape:cy="563.96797"
     inkscape:window-width="1920"
     inkscape:window-height="1010"
     inkscape:window-x="-6"
     inkscape:window-y="-6"
     inkscape:window-maximized="1"
     inkscape:current-layer="layer1">
    <inkscape:grid
       type="xygrid"
       id="grid377" />
  </sodipodi:namedview>
  <defs
     id="defs348" />
  <g
     inkscape:label="Layer 1"
     inkscape:groupmode="layer"
     id="layer1"
     style="fill:#00ff00">
    <path
       style="fill:#ffffff;fill-opacity:1;stroke-width:0.132292"
       d="m 75.32,161.54145 c -1.81894,-0.96102 -3.249494,-5.14294 -3.619632,-10.58128 -0.04209,-0.61846 -0.129869,-1.60073 -0.195054,-2.18281 -0.115054,-1.02734 -0.254177,-5.86204 -0.542475,-18.85156 -0.175202,-7.89387 -0.629095,-13.81235 -1.206177,-15.72788 -0.168376,-0.55889 -0.216662,-0.59894 -1.297837,-1.07646 -0.617625,-0.27278 -1.588151,-0.75571 -2.156722,-1.07316 -0.568571,-0.31746 -1.193649,-0.66649 -1.389062,-0.77564 -0.346329,-0.19345 -1.5517,-0.9101 -2.068174,-1.22963 -4.02658,-2.49119 -8.326163,-6.48688 -9.353312,-8.69223 -1.589566,-3.41291 0.193196,-6.16894 3.032358,-4.68783 0.198503,0.10355 0.40141,0.18864 0.450903,0.18909 0.122213,0.001 3.471513,1.52036 4.116167,1.8671 0.130572,0.0702 0.577057,0.31206 0.992188,0.53738 0.415129,0.22532 0.90361,0.45629 1.085511,0.51327 0.181901,0.057 1.045104,0.39859 1.918229,0.75915 1.388359,0.57333 2.609067,1.01532 4.131212,1.49581 0.234874,0.0741 0.711124,0.18337 1.058334,0.24273 0.347207,0.0594 0.899178,0.17211 1.2266,0.25054 7.242943,1.73497 16.206373,0.1884 23.439923,-4.04437 0.77735,-0.45487 1.44531,-0.82704 1.48434,-0.82704 0.072,0 2.07407,-1.3244 2.19553,-1.45239 0.0364,-0.0383 0.33403,-0.24814 0.66145,-0.46621 0.32742,-0.21808 0.70939,-0.49945 0.84882,-0.62526 0.13943,-0.12582 0.49661,-0.39371 0.79375,-0.59532 0.29714,-0.2016 1.12112,-0.79533 1.83109,-1.31939 2.19264,-1.61848 3.0851,-1.946 4.19484,-1.5394 2.23228,0.8179 2.38193,3.27287 0.44546,7.30758 -0.51606,1.07521 -0.98532,1.88387 -1.23603,2.12997 -0.0371,0.0364 -0.22192,0.30427 -0.4108,0.59532 -1.83576,2.82865 -5.10532,5.82544 -9.74466,8.93169 -0.67486,0.45185 -1.27461,0.91902 -1.33279,1.03815 -0.14675,0.30053 0.0616,12.18925 0.23549,13.43972 0.19759,1.42065 0.17713,5.59178 -0.0571,11.64773 -0.10978,2.83765 -0.25714,7.18343 -0.32747,9.65729 -0.32175,11.31648 -1.56942,14.78992 -5.38089,14.98002 -1.39195,0.0694 -3.08883,-0.88162 -3.08883,-1.73118 0,-0.0721 -0.0825,-0.22512 -0.18328,-0.33999 -0.29219,-0.33297 -0.87742,-2.23772 -1.01206,-3.29392 -0.0679,-0.53262 -0.14949,-1.01055 -0.18133,-1.06206 -0.19303,-0.31232 -0.35281,-2.8671 -0.47523,-7.59845 -0.18792,-7.26245 -0.30822,-8.42393 -0.85093,-8.21567 -0.49833,0.19122 -0.9946,3.2951 -1.00235,6.26906 -0.002,0.90951 -0.0617,2.0406 -0.13175,2.51354 -0.0701,0.47295 -0.16209,1.8124 -0.20443,2.97656 -0.0423,1.16417 -0.15789,2.56316 -0.25678,3.10886 -0.0989,0.5457 -0.21792,1.26008 -0.26451,1.5875 -0.60755,4.27002 -3.70392,7.25531 -6.17249,5.95107 z m 26.14712,-4.27819 c -0.86453,-0.40374 -1.39514,-0.86658 -1.71325,-1.49437 -0.14191,-0.28008 -0.32551,-0.59854 -0.40799,-0.70768 -0.16139,-0.21354 -0.50282,-1.74368 -0.72324,-3.24114 -0.3945,-2.68019 -0.62757,-8.05225 -0.8638,-19.9099 -0.19019,-9.54709 -0.26518,-11.45207 -0.58327,-14.81667 -0.24484,-2.58996 -0.18852,-4.19458 0.15743,-4.48472 0.4949,-0.41507 1.82265,-1.47667 2.94349,-2.35345 2.00268,-1.56661 2.45702,-1.95603 3.63058,-3.11186 1.91246,-1.88355 2.79029,-2.96333 4.33289,-5.32965 1.20516,-1.84871 2.10051,-3.92436 2.48232,-5.75469 0.50921,-2.44101 0.57582,-1.97508 1.26718,8.86354 0.50166,7.86456 0.65467,25.62222 0.26732,31.0224 -0.81411,11.3494 -2.1903,17.01718 -4.82875,19.88702 -1.34906,1.46738 -4.34379,2.18638 -5.96091,1.43117 z m -51.649148,-4.27835 c -1.130808,-0.26748 -3.582623,-3.13158 -3.582623,-4.18505 0,-0.0386 -0.182372,-0.47618 -0.40527,-0.97238 -0.222898,-0.49622 -0.455721,-1.02127 -0.517382,-1.16679 -0.951598,-2.24577 -3.883081,-11.35799 -4.383617,-13.62604 -0.525724,-2.38218 -0.297063,-2.24049 -3.768971,-2.33528 -3.780996,-0.10323 -3.351472,-0.50268 -3.222384,2.99674 0.421135,11.41632 -1.344859,15.62306 -5.646915,13.45139 -2.319438,-1.17085 -5.00743,-5.58016 -5.861433,-9.61493 -0.0616,-0.29105 -0.263374,-1.12448 -0.448382,-1.85209 -0.293145,-1.15289 -0.687009,-3.20922 -1.140243,-5.95312 -0.07211,-0.43656 -0.168362,-1.18691 -0.213894,-1.66743 -0.107014,-1.12938 0.07729,-0.95967 -2.45913,-2.26444 -2.825332,-1.45339 -4.700144,-2.67398 -7.055815,-4.59363 -1.7117016,-1.39488 -4.0531986,-4.20366 -4.7742016,-5.72698 -0.229449,-0.48478 -0.227502,-0.51363 0.102686,-1.52136 0.185113,-0.56496 0.440875,-1.38439 0.56836,-1.82095 0.127484,-0.43657 0.281846,-0.94258 0.343027,-1.12448 0.261117,-0.77635 1.197533,-4.0068 1.514729,-5.22552 0.189373,-0.72761 0.495939,-1.88847 0.681258,-2.57969 0.185319,-0.69122 0.416837,-1.58419 0.5144846,-1.98438 0.09765,-0.40018 0.361626,-1.44197 0.586616,-2.3151 0.427675,-1.65969 0.910906,-3.63351 1.246919,-5.09323 0.108868,-0.47294 0.380069,-1.6338 0.602671,-2.57969 0.47934,-2.03683 0.570513,-2.44178 0.86376,-3.83645 0.122389,-0.58209 0.27761,-1.2667 0.344936,-1.52136 0.06732,-0.25466 0.20851,-0.9095 0.313747,-1.45521 0.105235,-0.5457 0.315608,-1.55773 0.467493,-2.24896 1.603042,-7.29536 2.070947,-19.402787 1.058299,-27.384367 -0.587831,-4.63322 -0.32067,-3.87306 -2.500109,-7.11361 C 9.0697544,41.757463 6.3771204,36.349813 4.4352674,30.376323 3.9858634,28.993873 3.5677354,27.713951 3.5060934,27.53205 2.7894444,25.417273 1.6033494,20.364866 0.99051041,16.816426 -0.58050959,7.7199486 1.4316904,2.8832756 6.2171214,4.2533576 c 1.21342,0.347406 2.617377,2.545117 4.5606546,7.1391094 0.384724,0.909505 0.84694,1.981068 1.027145,2.38125 0.180207,0.400183 0.493797,1.144323 0.696869,1.653646 3.507661,8.797533 6.869951,14.92434 9.963083,18.15487 6.585098,6.87759 15.258222,11.57897 26.019434,14.10416 1.452653,0.34088 2.746891,0.60529 5.55625,1.13514 3.880885,0.73195 9.507794,1.39532 13.367152,1.57588 3.470238,0.16236 3.934251,0.74025 4.497602,5.60136 0.427016,3.68473 -0.124108,4.21807 -5.69392,5.51011 -3.797126,0.88082 -5.312598,1.11623 -11.178646,1.73641 -0.727604,0.0769 -2.364714,0.19892 -3.638021,0.27109 -3.137347,0.17783 -3.670067,0.24849 -3.76641,0.49955 -0.141001,0.36745 -0.08953,9.432927 0.06288,11.074967 0.249375,2.6867 0.669107,5.16969 1.140513,6.74688 0.108736,0.3638 0.284377,0.95911 0.390316,1.32291 0.415205,1.42588 2.058252,6.31377 2.71263,8.06979 0.379595,1.01865 0.756184,2.03068 0.836866,2.24896 0.08069,0.21828 0.192339,0.46799 0.248126,0.55492 0.06378,0.0994 -0.185488,0.44407 -0.671589,0.92866 -3.958309,3.94603 -0.320794,10.93341 8.528225,16.38203 2.123905,1.30776 3.098776,1.88876 3.543956,2.11213 1.79606,0.90116 1.977805,1.51192 0.915104,3.07521 -2.636899,3.87904 -7.075787,8.07601 -10.434892,9.86619 -1.004742,0.53547 -1.016669,0.5614 -0.863994,1.8777 0.285213,2.45901 0.649031,6.15071 0.794874,8.06566 0.08312,1.09141 0.236858,3.05934 0.341636,4.37318 0.258963,3.24724 0.251986,6.72326 -0.01561,7.77857 -0.971372,3.83062 -2.54309,5.15268 -5.339379,4.49122 z m 73.470068,-2.48494 c -1.57873,-0.49882 -2.66146,-1.52871 -3.1109,-2.9591 -0.5903,-1.87873 -0.72629,-2.5264 -1.37925,-6.56872 -0.28829,-1.78472 -0.95979,-7.61806 -1.18785,-10.31875 -0.043,-0.50932 -0.13347,-1.46182 -0.20102,-2.11667 -0.24594,-2.38395 -0.9616,-12.77317 -1.33505,-19.38073 -0.26612,-4.7086 -0.3815,-7.1059 -0.51574,-10.71562 -0.0744,-2.00091 -0.19461,-4.7052 -0.26711,-6.00954 -0.0725,-1.30433 -0.13182,-3.013 -0.13182,-3.79703 0,-1.42551 0,-1.42551 -0.62838,-1.85557 -3.42304,-2.34266 -8.34174,-6.97765 -12.46849,-11.74934 -2.65614,-3.07125 -6.16093,-8.273197 -6.955,-10.322887 -0.12685,-0.32743 -0.28399,-0.66486 -0.3492,-0.74986 -1.60891,-2.09706 -1.51696,-7.21393 0.15965,-8.88426 2.65266,-2.64273 4.94381,-1.77484 9.0903,3.44343 7.77815,9.78861 11.63663,13.192037 17.0381,15.028687 7.44592,2.53183 16.86304,-0.18564 22.24266,-6.418497 0.30077,-0.34847 0.88269,-1.02052 1.29319,-1.49346 1.71014,-1.97033 3.91462,-5.49899 6.19856,-9.92188 3.31663,-6.42271 4.00781,-7.46484 5.3112,-8.0079 0.8136,-0.33898 2.04176,0.045 3.2909,1.02881 1.60256,1.26218 1.78378,4.27326 0.62708,10.41868 -1.18392,6.29005 -3.73012,12.167087 -7.30761,16.867177 -0.2769,0.3638 -0.54762,0.72161 -0.60159,0.79513 -0.96039,1.30819 -3.47736,4.12829 -5.84334,6.54706 -2.00577,2.05052 -2.00577,2.05052 -1.92413,5.33913 1.08184,43.57799 -0.74172,58.49836 -7.14734,58.47918 -2.66639,-0.008 -3.61551,-2.07174 -4.10112,-8.91727 -0.11612,-1.63711 -0.26888,-3.60164 -0.33944,-4.36562 -0.0706,-0.76399 -0.18499,-2.19274 -0.25424,-3.175 -0.11696,-1.65889 -0.82505,-10.80331 -0.99878,-12.89844 -0.0811,-0.97854 -0.31967,-2.23294 -0.40783,-2.14477 -0.38301,0.38301 -0.73752,7.17258 -0.858,16.43227 -0.16854,12.95294 -0.41419,14.94107 -2.10967,17.07455 -1.03064,1.29691 -3.10303,1.86205 -4.82874,1.31681 z m -46.0303,-48.94484 c -1.7271,-0.40154 -2.01726,-0.50162 -2.91041,-1.00389 -0.50933,-0.28642 -1.058513,-0.57885 -1.220416,-0.64983 -0.482934,-0.21174 -2.412162,-2.1306 -2.975904,-2.95991 -2.303428,-3.38854 -2.538198,-8.25116 -0.561226,-11.62435 0.251936,-0.42987 0.458065,-0.83396 0.458065,-0.89799 0,-0.064 0.473461,-0.61659 1.052137,-1.22792 1.346911,-1.42291 2.420194,-2.15521 4.437964,-3.02798 1.36372,-0.58986 4.61307,-0.83741 5.93763,-0.45235 0.39472,0.11475 0.81862,0.20864 0.942,0.20864 1.863,0 5.58772,3.09652 6.92214,5.75468 4.07172,8.11089 -3.37896,17.90427 -12.08198,15.8809 z M 90.52346,98.1021 c -0.0405,-0.0405 0.15592,-0.47213 0.43656,-0.95911 5.58973,-9.69972 -4.40077,-23.0088 -14.62832,-19.48746 -1.94797,0.67069 -2.26115,0.71948 -2.2194,0.34579 0.48612,-4.35142 0.54738,-10.885177 0.14514,-15.478127 -0.0956,-1.0914 -0.15924,-2.81781 -0.14147,-3.83646 0.0602,-3.44968 -0.46574,-6.24196 -1.598609,-8.48709 -0.876133,-1.73633 -1.115052,-1.83068 -4.983054,-1.96774 -1.200547,-0.0425 -2.718593,-0.1344 -3.373437,-0.20415 -2.834365,-0.30187 -4.701225,-0.5387 -5.688542,-0.72165 -0.582083,-0.10786 -1.250119,-0.19584 -1.484521,-0.1955 -0.234405,2.6e-4 -0.859483,-0.0869 -1.389063,-0.19375 -0.529582,-0.10689 -1.915374,-0.37668 -3.079541,-0.59953 -2.153385,-0.4122 -3.733112,-0.76273 -5.159375,-1.14484 -0.436562,-0.11696 -1.121172,-0.30049 -1.521354,-0.40785 -0.400182,-0.10736 -0.923102,-0.27814 -1.162042,-0.37951 -0.23894,-0.10138 -0.54419,-0.18432 -0.678331,-0.18432 -0.341701,0 -0.610788,-0.33798 -0.381936,-0.47972 0.61215,-0.37915 2.526599,-1.30412 3.875955,-1.87268 2.710683,-1.14217 2.972004,-1.23323 7.276042,-2.53548 2.07577,-0.62805 8.499088,-2.06619 11.57552,-2.59168 0.691224,-0.11807 1.67349,-0.29593 2.182813,-0.39526 0.509323,-0.0993 1.670182,-0.30655 2.579687,-0.46052 0.909505,-0.15397 2.10013,-0.36204 2.645838,-0.46238 1.39268,-0.25608 3.02771,-0.54319 4.49791,-0.78983 2.31565,-0.38847 6.00804,-1.07934 7.07761,-1.32428 0.43656,-0.1 1.29976,-0.28251 1.91822,-0.40564 0.61847,-0.12313 1.45191,-0.30252 1.85209,-0.39864 0.40018,-0.0961 1.26338,-0.30166 1.91823,-0.45675 1.72544,-0.40863 4.46622,-1.1519 5.68854,-1.54266 1.86656,-0.59671 2.51717,-0.81406 2.84979,-0.95201 0.17886,-0.0742 0.89075,-0.35052 1.58198,-0.614079 1.46339,-0.557985 1.56465,-0.602546 3.57187,-1.5719 1.51304,-0.730702 2.30699,-1.154938 4.13574,-2.209913 1.06653,-0.61526 2.87002,-1.71218 3.07416,-1.869761 0.0728,-0.05617 0.6218,-0.44605 1.2201,-0.866404 3.42438,-2.405906 8.27682,-6.838421 11.61723,-10.611874 1.68095,-1.8988574 3.58949,-3.6287674 4.42673,-4.0123914 0.10914,-0.05001 0.4068,-0.217203 0.66146,-0.371544 3.6295,-2.1997 7.11722,-0.779545 8.68364,3.5358684 0.90777,2.5009 -1.13128,7.15131 -6.06944,13.842334 -2.79421,3.786076 -9.17146,10.401614 -12.9791,13.464064 -0.22616,0.1819 -0.8317,0.71768 -1.34563,1.19063 -0.51394,0.47294 -1.31595,1.18731 -1.78225,1.5875 -2.39487,2.05532 -4.22836,4.05067 -5.2354,5.6976 -0.52026,0.85083 -0.52026,0.85083 -0.55495,8.25917 -0.0368,7.86268 -0.0374,7.87482 -0.3871,7.58859 -0.25724,-0.21056 -3.0159,-3.5292 -3.87366,-4.65996 -4.98798,-6.57552 -8.1154,-7.92077 -11.96954,-5.14864 -4.46719,3.21306 -3.97455,8.92851 1.51447,17.57038 1.71385,2.698257 4.78764,6.419437 8.75981,10.604747 0.98395,1.03675 3.97182,3.84904 5.23003,4.92269 0.95912,0.81843 0.95912,0.81843 0.9596,1.90364 2.7e-4,0.59687 0.0393,1.93353 0.0867,2.97037 0.097,2.12086 0.0199,2.27944 -0.54645,1.12448 -0.69029,-1.40757 -2.33403,-2.43196 -4.04438,-2.52049 -1.49428,-0.0773 -2.51693,0.44967 -6.41044,3.30358 -2.82608,2.07149 -4.87403,3.38384 -7.00482,4.4888 -1.97966,1.02659 -2.20359,1.11909 -2.35134,0.97134 z m 33.08151,-26.43724 c -7.01281,-1.788297 -10.46242,-9.693277 -7.02012,-16.086977 3.98273,-7.39748 14.61894,-7.82102 19.11678,-0.76125 5.43084,8.5242 -2.3332,19.337957 -12.09666,16.848227 z M 37.900974,38.326023 C 23.382512,34.537283 25.96892,13.219361 40.943683,13.247177 c 7.918285,0.01471 14.612141,8.262626 12.452257,15.343206 -0.09988,0.327422 -0.270957,0.89297 -0.380177,1.25677 -1.847657,6.15438 -8.888053,10.1038 -15.114789,8.47887 z M 80.82962,29.038019 C 78.9444,28.753864 74.97428,27.19233 74.60085,26.588115 74.55785,26.518535 74.23511,26.234311 73.88365,25.956499 70.72986,23.463568 68.666261,18.867282 68.912665,14.884537 69.786697,0.75703764 87.40875,-3.5058754 94.81471,8.6186266 c 2.09381,3.4278294 2.23115,8.6920064 0.33122,12.6957154 -2.24914,4.739611 -6.68468,7.615105 -11.93506,7.737311 -1.09141,0.0254 -2.16297,0.01926 -2.38125,-0.01363 z"
       id="path123" />
  </g>
</svg>
